<svg data-name="Nerudas" xmlns="http://www.w3.org/2000/svg" viewBox="0 0 1879 403">
	<g class="letters">
		<path class="n" d="M1,6c13.3-0.1,26.7,0,40-0.2c3.6-0.1,3,2,3,4.1c0,29.3,0,58.6,0,88c0,15.8,0.1,31.7-0.1,47.5
		c0,3.4,0.4,4.8,4.4,4.8c48.6-0.2,97.3-0.2,145.9,0c3.8,0,4.6-1.1,4.6-4.7c-0.1-44.8,0-89.6-0.2-134.5c0-4.1,0.8-5.3,5.1-5.2
		c11,0.3,22,0.3,33,0c4.3-0.1,5.5,0.9,5.5,5.4c-0.2,80-0.1,159.9-0.1,239.9c0,23.2-0.1,46.3,0.1,69.5c0,3.8-0.9,4.7-4.6,4.6
		c-11.3-0.3-22.7-0.3-34,0c-3.9,0.1-4.9-0.9-4.9-4.9c0.2-43.5,0-87,0.2-130.5c0-4.6-1.1-5.7-5.7-5.7c-48,0.2-96,0.2-143.9,0
		c-4.5,0-5.4,1.2-5.4,5.5c0.2,43.5,0,87,0.2,130.5c0,4.1-0.9,5.2-5.1,5.1c-12.7-0.3-25.3-0.1-38-0.1C1,218.7,1,112.3,1,6z"/>
		<path class="e" d="M275.5,165.4c0-51.5,0.1-103-0.1-154.5c0-4.2,1.1-5.2,5.2-5.2c61.5,0.1,123,0.1,184.5,0
		c4.3,0,5.2,1.2,5,5.2c-0.3,8.2-0.3,16.3,0,24.5c0.1,3.7-0.8,4.7-4.6,4.7c-47.2-0.1-94.3,0-141.5-0.2c-4.1,0-5.2,0.9-5.1,5.1
		c0.2,31.2,0.2,62.3,0,93.5c0,3.8,1,4.6,4.6,4.6c40.5-0.1,81,0,121.5-0.2c4.3,0,5.2,1.1,5.1,5.2c-0.3,8-0.3,16,0,24
		c0.2,4.1-0.8,5.2-5.1,5.2c-40.3-0.2-80.7,0-121-0.2c-4.2,0-5.2,1.1-5.1,5.2c0.2,34.7,0.2,69.3,0,104c0,3.9,1,4.9,4.9,4.8
		c47.8-0.1,95.7,0,143.5-0.2c4.6,0,5.5,1.3,5.3,5.5c-0.3,8.3-0.2,16.7,0,25c0.1,2.8-0.7,3.7-3.6,3.7c-63.3-0.1-126.6-0.1-190,0
		c-4.2,0-3.5-2.2-3.5-4.7C275.5,268.7,275.5,217.1,275.5,165.4z"/>
		<path class="r" d="M500.2,165.3c0-51.3,0-102.6-0.1-154c0-4.1,0.6-5.6,5.3-5.6C548.2,6,591,5.4,633.8,6.2
		c24.6,0.5,47.6,7.6,66.6,24.4c19,16.7,28.3,38.2,29.7,63.2c1.2,21.4-1.9,41.8-13.8,60.2c-14.4,22.3-35.4,34.5-60.9,39.9
		c-10.8,2.3-21.7,3.2-32.7,3.1c-24.2-0.1-48.3,0-72.5,0c-6.7,0-6.7,0-6.7,6.9c0,38.7-0.1,77.3,0.1,116c0,4.1-0.9,5.3-5.1,5.2
		c-11.2-0.3-22.3-0.3-33.5,0c-3.9,0.1-4.9-0.9-4.9-4.9C500.2,268.6,500.2,216.9,500.2,165.3z M543.5,101.5c0,19,0.1,38-0.1,57
		c0,3.2,0.3,4.6,4.2,4.6c26.3-0.2,52.6,0.1,79-0.2c14.2-0.2,27.8-3.3,39.1-12.7c13.5-11.2,19.6-26,20.8-43.2
		c2.2-30.6-13.6-66.2-59.5-67c-26.5-0.5-53,0-79.5-0.2c-3.3,0-4.1,1-4.1,4.2C543.6,63.2,543.5,82.4,543.5,101.5z"/>
		<path class="u" d="M993.3,5.8c-0.9,4.7-3.1,8.4-4.8,12.3c-36.6,84.3-73.2,168.5-109.8,252.7c-4.5,10.2-10,19.9-16.6,28.9
		c-12.1,16.7-28.1,26.6-48.7,28.9c-19.6,2.3-38.8,0.7-57.8-4.9c-4.2-1.2-5.8-3-4.7-7.6c1.8-7.6,2.9-15.4,4.1-23.1
		c0.4-3.1,1.4-3.1,4.2-2.5c12.9,3.1,25.9,6,39.4,4.6c11-1.1,19.9-5.9,27.2-14.1c9.3-10.4,13.7-23.4,19.9-35.5
		c1.1-2.1-0.5-3.8-1.3-5.6c-23.9-53.5-47.9-107.1-71.8-160.6c-10-22.4-20.1-44.9-30.2-67.3c-0.9-1.9-1.6-3.9-2.7-6.4
		c15.9,0,31.4,0,46.8,0c2.9,0,2.8,2.5,3.5,4.2c16,38.7,32.1,77.3,47.9,116.1c9.1,22.3,17.9,44.7,26.8,67.1c0.5,1.2,1,2.4,1.5,3.7
		c1.9-0.9,2-2.8,2.6-4.2c24.2-60.5,48.3-120.9,72.3-181.5c1.6-4,3.4-5.5,7.8-5.4C963.7,6,978.3,5.8,993.3,5.8z"/>
		<path class="d" d="M980,404c0.1-35.8,0.2-71.6,0-107.4c0-4.6,1.1-6,5.7-5.7c5.5,0.4,11,0,16.5,0.1
		c13.2,0.4,23.4-5.4,31.4-15.5c9.9-12.6,14.5-27.5,18.4-42.7c7.8-30.6,10.6-61.9,12.5-93.3c2.5-43.2,5-86.4,7.3-129.6
		c0.2-3.2,0.9-4.2,4.2-4.1c59.3,0.1,118.6,0.1,177.9,0c4.5,0,4.1,2.1,4.1,5.1c0,91.5,0,182.9-0.1,274.4c0,4.7,1,6.1,5.9,5.9
		c11.1-0.4,22.3,0,33.5-0.2c3.6-0.1,4.4,1,4.4,4.4c-0.1,35.7-0.1,71.3-0.1,107c0,0.7-0.1,1.3,0.6,1.7c-14.7,0-29.3,0-44,0
		c0-24.5-0.1-48.9,0.1-73.4c0-4.4-0.8-5.7-5.5-5.7c-74.4,0.2-148.8,0.1-223.3,0.1c-0.8,0-1.7,0.1-2.5,0c-2.5-0.4-3,0.8-3,3.1
		c0.1,25.3,0.2,50.6,0.2,75.9C1009.3,404,994.7,404,980,404z M1071.4,291c46.4,0,91.8-0.1,137.1,0.1c4.8,0,6.4-0.9,6.3-6.1
		c-0.2-79.6-0.1-159.3-0.1-238.9c0-1-0.1-2,0-3c0.3-2.5-0.9-3.1-3.2-3.1c-31.7,0.1-63.3,0.1-95,0c-2.4,0-3.2,0.7-3.3,3.1
		c-0.2,6.5-0.6,13-1,19.4c-2.2,38.5-3.1,77.2-7.3,115.6c-2.8,25.3-6.8,50.4-14.9,74.7C1085.7,266.1,1079.8,278.6,1071.4,291z"/>
		<path class="a" d="M1344.7,325c6.7-18.6,13.1-36.5,19.5-54.4c31.3-86.7,62.5-173.3,93.7-260c1.2-3.4,2.6-5,6.5-4.8
		c9.3,0.3,18.7,0.3,28,0c3.6-0.1,5.2,1.1,6.4,4.5c23.6,67.4,47.4,134.7,71.2,202c12.8,36.2,25.4,72.4,38.3,108.5
		c1.3,3.7,0.8,4.4-3,4.4c-12-0.2-24-0.2-36,0c-2.9,0-4.3-0.7-5.3-3.6c-8.3-24.9-16.9-49.7-25.2-74.6c-1-3-2.3-4-5.5-4
		c-37.3,0.1-74.6,0.1-111.9,0c-3,0-4.3,0.8-5.3,3.7c-8.3,24.5-16.9,49-25.2,73.5c-1.3,3.7-2.8,5.1-7,5
		C1371.1,324.8,1358.3,325,1344.7,325z M1478.7,70c-1.7,0.4-1.7,1.4-1.9,2.1c-15.1,43.4-30.2,86.8-45.4,130.2
		c-1.5,4.3,0.5,4.2,3.6,4.2c28.3-0.1,56.6-0.1,84.9,0.1c4.4,0,4.8-1.1,3.5-5c-8.8-25.4-17.4-50.9-26-76.4
		C1491.2,106.9,1485,88.5,1478.7,70z"/>
		<path class="s" d="M1880,108c-12.5-0.1-24.9-0.3-37.4-0.1c-3.8,0.1-5.1-0.9-5.2-4.9c-0.5-16-4.8-30.8-15.1-43.4
		c-11.4-13.9-26.5-20.8-43.9-23.2c-16.1-2.3-31.9-1.7-46.8,5.5c-20.8,10-32.5,27.7-40.6,48.5c-5.5,14.3-7.7,29.3-7.7,44.5
		c-0.1,24.6-1.3,49.3,0.8,73.9c2.4,27.3,11.6,51.9,32.6,70.7c14,12.6,31,17,49.4,16.3c12.7-0.4,25.2-2.5,36.6-8.6
		c23.6-12.5,33.5-33.2,34.6-58.8c0.2-4.8,1.7-5.7,6.1-5.6c10.5,0.3,21,0.1,31.5,0.1c1.8,0,3.6-0.2,5.1,1.2c0,5,0,10,0,15
		c-2.2,2.9-1.6,6.5-2.4,9.8c-6.6,29-23.4,50.8-49,64.9c-35.6,19.5-73.7,22.3-111.4,7.8c-42.3-16.3-64.8-50.2-74.1-93.5
		c-2.4-11.3-3.2-22.7-3.1-34.2c0.1-21-0.4-42,0.1-63c1-39,13.8-73.3,42.9-100.3c17.7-16.4,38.7-25.5,62.5-28.4
		c0.9-0.1,2.1,0.4,2.4-1c10,0,20,0,30,0c0.2,0.8,0.7,1,1.4,1c8.2,0.4,16.2,1.8,24,4c36.6,10.4,62.5,32.1,73,69.8
		c1.5,5.3,1.4,11,3.5,16.2C1880,97.3,1880,102.7,1880,108z"/>
	</g>
	<g class="dots">
		<path class="background" d="M1071.4,291c8.4-12.4,14.3-24.9,18.7-38.2c8.1-24.3,12.2-49.4,14.9-74.7c4.2-38.4,5-77,7.3-115.6
		c0.4-6.5,0.8-13,1-19.4c0.1-2.4,0.9-3.1,3.3-3.1c31.7,0.1,63.3,0.1,95,0c2.3,0,3.5,0.6,3.2,3.1c-0.1,1,0,2,0,3
		c0,79.6-0.1,159.3,0.1,238.9c0,5.3-1.5,6.1-6.3,6.1C1163.2,290.9,1117.8,291,1071.4,291z M1167,85c0-9.2-7.5-16.9-16.7-17
		c-9.4-0.1-17.3,7.6-17.3,17c0,9.2,7.5,16.9,16.7,17C1159.2,102.1,1167,94.5,1167,85z M1179,187c9.2,0,16.8-7.6,17-16.8
		c0.1-9.4-7.6-17.2-17-17.2c-9.4,0-17.1,7.9-17,17.3C1162.2,179.5,1169.8,187,1179,187z M1153,252c0-9.2-7.5-16.9-16.7-17
		c-9.4-0.2-17.3,7.6-17.3,17c0,9.2,7.5,16.9,16.7,17C1145.2,269.1,1153,261.5,1153,252z"/>
		<path class="top" d="M1167,85c0,9.4-7.8,17.1-17.3,17c-9.2-0.1-16.7-7.8-16.7-17c0-9.4,7.9-17.1,17.3-17
		C1159.5,68.2,1167,75.8,1167,85z"/>
		<path class="middle" d="M1179,187c-9.2,0-16.9-7.5-17-16.7c-0.1-9.4,7.6-17.3,17-17.3c9.4,0,17.1,7.8,17,17.2
		C1195.9,179.4,1188.3,187,1179,187z"/>
		<path class="button" d="M1153,252c0,9.4-7.8,17.1-17.3,17c-9.2-0.1-16.7-7.8-16.7-17c0-9.4,7.9-17.1,17.3-17
		C1145.5,235.2,1153,242.8,1153,252z"/>
	</g>
</svg>
